<svg xmlns="http://www.w3.org/2000/svg" width="81.288" height="74" viewBox="0 0 81.288 74">
  <g id="domain" transform="translate(0)">
    <g id="Group_59" data-name="Group 59" transform="translate(0 0.649)">
      <path id="Path_172" data-name="Path 172" d="M73.51,16.5c0,16.148,8.361,27.237,8.361,35.018S77.4,75.641,41.618,75.641.583,53.657.583,45.1C.583,5.021,73.51-12.1,73.51,16.5Z" transform="translate(-0.583 -2.29)" fill="#fff"/>
    </g>
    <g id="Group_60" data-name="Group 60" transform="translate(24.405 0)">
      <path id="Path_173" data-name="Path 173" d="M14.355,8.71A3.355,3.355,0,1,1,17.71,5.355,3.359,3.359,0,0,1,14.355,8.71Zm0-4.474a1.118,1.118,0,1,0,1.118,1.118A1.12,1.12,0,0,0,14.355,4.237Z" transform="translate(-11 -2)" fill="#a4afc1"/>
    </g>
    <g id="Group_61" data-name="Group 61" transform="translate(15.481 22.621)">
      <path id="Path_174" data-name="Path 174" d="M52.6,49.276H11.224A4.472,4.472,0,0,1,6.75,44.8V11.25H57.079V44.8A4.472,4.472,0,0,1,52.6,49.276Z" transform="translate(-6.75 -11.25)" fill="#f3f3f1"/>
    </g>
    <g id="Group_62" data-name="Group 62" transform="translate(15.481 13.488)">
      <path id="Path_175" data-name="Path 175" d="M57.079,15.579H6.75V12.224A4.472,4.472,0,0,1,11.224,7.75H52.6a4.472,4.472,0,0,1,4.474,4.474Z" transform="translate(-6.75 -7.75)" fill="#de291d"/>
    </g>
    <g id="Group_63" data-name="Group 63" transform="translate(14.48 22.621)">
      <path id="Path_176" data-name="Path 176" d="M12.342,44.8V11.25H6.75V44.8a4.472,4.472,0,0,0,4.474,4.474h5.592A4.472,4.472,0,0,1,12.342,44.8Z" transform="translate(-6.75 -11.25)" fill="#d5dbe1"/>
    </g>
    <g id="Group_64" data-name="Group 64" transform="translate(14.474 13.488)">
      <path id="Path_177" data-name="Path 177" d="M16.257,7.75H11.224A4.472,4.472,0,0,0,6.75,12.224v3.355h5.033V12.224A4.472,4.472,0,0,1,16.257,7.75Z" transform="translate(-6.75 -7.75)" fill="#b21d13"/>
    </g>
    <g id="Group_65" data-name="Group 65" transform="translate(26.787 35.344)">
      <path id="Path_178" data-name="Path 178" d="M20.947,30.421H15.914A3.919,3.919,0,0,1,12,26.507V20.914A3.919,3.919,0,0,1,15.914,17h5.033v3.355H15.914a.559.559,0,0,0-.559.559v5.592a.559.559,0,0,0,.559.559h5.033Z" transform="translate(-12 -17)"/>
    </g>
    <g id="Group_66" data-name="Group 66" transform="translate(50.327 35.343)">
      <path id="Path_179" data-name="Path 179" d="M33.184,30.421H29.829V24l-.863,1.232a1.738,1.738,0,0,1-2.749,0L25.355,24v6.422H22V18.678a1.677,1.677,0,0,1,3.051-.962l2.541,3.628,2.541-3.628a1.677,1.677,0,0,1,3.051.962Z" transform="translate(-22 -17)"/>
    </g>
    <g id="Group_67" data-name="Group 67" transform="translate(38.518 35.344)">
      <path id="Path_180" data-name="Path 180" d="M22.033,30.421H20.914A3.919,3.919,0,0,1,17,26.507V20.914A3.919,3.919,0,0,1,20.914,17h1.118a3.919,3.919,0,0,1,3.914,3.914v5.592A3.919,3.919,0,0,1,22.033,30.421ZM20.914,20.355a.559.559,0,0,0-.559.559v5.592a.559.559,0,0,0,.559.559h1.118a.559.559,0,0,0,.559-.559V20.914a.559.559,0,0,0-.559-.559Z" transform="translate(-17 -17)"/>
    </g>
    <g id="Group_68" data-name="Group 68" transform="translate(13.803 14.254)">
      <path id="Path_181" data-name="Path 181" d="M53.533,56.21H12.151A6.156,6.156,0,0,1,6,50.059V13.151A6.156,6.156,0,0,1,12.151,7H53.533a6.156,6.156,0,0,1,6.151,6.151V50.059A6.156,6.156,0,0,1,53.533,56.21ZM12.151,10.355a2.8,2.8,0,0,0-2.8,2.8V50.059a2.8,2.8,0,0,0,2.8,2.8H53.533a2.8,2.8,0,0,0,2.8-2.8V13.151a2.8,2.8,0,0,0-2.8-2.8Z" transform="translate(-6 -7)"/>
    </g>
    <g id="Group_69" data-name="Group 69" transform="translate(15.481 19.877)">
      <path id="Path_182" data-name="Path 182" d="M6.75,10.5H57.079v3.355H6.75Z" transform="translate(-6.75 -10.5)"/>
    </g>
    <g id="Group_70" data-name="Group 70" transform="translate(19.679 45.6)">
      <ellipse id="Ellipse_3" data-name="Ellipse 3" cx="1.678" cy="1.678" rx="1.678" ry="1.678"/>
    </g>
    <g id="Group_71" data-name="Group 71" transform="translate(3.169 60.109)">
      <path id="Path_183" data-name="Path 183" d="M2,27.5H76.951v3.355H2Z" transform="translate(-2 -27.5)"/>
    </g>
  </g>
</svg>
