<svg xmlns="http://www.w3.org/2000/svg" width="82.167" height="74" viewBox="0 0 82.167 74">
  <g id="lists" transform="translate(-0.134 -1.91)">
    <g id="bg" transform="translate(0.134 1.91)">
      <g id="Group_38" data-name="Group 38">
        <path id="Path_137" data-name="Path 137" d="M80.09,44.326c-8.7-13.317-7.773-26.967-11.965-33.386S51.44-6.544,21.92,12.738s-22.012,40.243-17.4,47.3C26.11,93.089,95.5,67.91,80.09,44.326Z" transform="translate(-0.134 -1.91)" fill="#fff"/>
      </g>
    </g>
    <g id="color" transform="translate(15.348 13.04)">
      <g id="Group_44" data-name="Group 44">
        <path id="Path_142" data-name="Path 142" d="M56.191,17.1H9.05a2.3,2.3,0,0,1-2.3-2.3V9.05a2.3,2.3,0,0,1,2.3-2.3H56.191a2.3,2.3,0,0,1,2.3,2.3V14.8A2.3,2.3,0,0,1,56.191,17.1Z" transform="translate(-6.75 -6.75)" fill="#f3f3f1"/>
      </g>
      <g id="Group_45" data-name="Group 45" transform="translate(18.397 20.696)">
        <path id="Path_143" data-name="Path 143" d="M45.795,26.1H17.05a2.3,2.3,0,0,1-2.3-2.3V18.05a2.3,2.3,0,0,1,2.3-2.3H45.795a2.3,2.3,0,0,1,2.3,2.3V23.8A2.3,2.3,0,0,1,45.795,26.1Z" transform="translate(-14.75 -15.75)" fill="#de291d"/>
      </g>
      <g id="Group_46" data-name="Group 46" transform="translate(18.397 41.393)">
        <path id="Path_144" data-name="Path 144" d="M45.795,35.1H17.05a2.3,2.3,0,0,1-2.3-2.3V27.05a2.3,2.3,0,0,1,2.3-2.3H45.795a2.3,2.3,0,0,1,2.3,2.3V32.8A2.3,2.3,0,0,1,45.795,35.1Z" transform="translate(-14.75 -24.75)" fill="#de291d"/>
      </g>
      <g id="Group_47" data-name="Group 47" transform="translate(0 20.696)">
        <path id="Path_145" data-name="Path 145" d="M11.924,26.1A5.174,5.174,0,1,1,17.1,20.924,5.173,5.173,0,0,1,11.924,26.1Z" transform="translate(-6.75 -15.75)" fill="#de291d"/>
      </g>
      <g id="Group_48" data-name="Group 48" transform="translate(0 41.393)">
        <path id="Path_146" data-name="Path 146" d="M11.924,35.1A5.174,5.174,0,1,1,17.1,29.924,5.173,5.173,0,0,1,11.924,35.1Z" transform="translate(-6.75 -24.75)" fill="#de291d"/>
      </g>
    </g>
    <g id="shadow" transform="translate(15.348 13.04)">
      <g id="Group_49" data-name="Group 49">
        <path id="Path_147" data-name="Path 147" d="M11.924,14.8V9.05a2.3,2.3,0,0,1,2.3-2.3H9.05a2.3,2.3,0,0,0-2.3,2.3V14.8a2.3,2.3,0,0,0,2.3,2.3h5.174A2.3,2.3,0,0,1,11.924,14.8Z" transform="translate(-6.75 -6.75)" fill="#b21d13"/>
      </g>
      <g id="Group_50" data-name="Group 50" transform="translate(18.397 20.696)">
        <path id="Path_148" data-name="Path 148" d="M19.924,23.8V18.05a2.3,2.3,0,0,1,2.3-2.3H17.05a2.3,2.3,0,0,0-2.3,2.3V23.8a2.3,2.3,0,0,0,2.3,2.3h5.174A2.3,2.3,0,0,1,19.924,23.8Z" transform="translate(-14.75 -15.75)" fill="#b21d13"/>
      </g>
      <g id="Group_51" data-name="Group 51" transform="translate(18.397 41.393)">
        <path id="Path_149" data-name="Path 149" d="M19.924,32.8V27.05a2.3,2.3,0,0,1,2.3-2.3H17.05a2.3,2.3,0,0,0-2.3,2.3V32.8a2.3,2.3,0,0,0,2.3,2.3h5.174A2.3,2.3,0,0,1,19.924,32.8Z" transform="translate(-14.75 -24.75)" fill="#b21d13"/>
      </g>
      <g id="Group_52" data-name="Group 52" transform="translate(0 20.696)">
        <path id="Path_150" data-name="Path 150" d="M11.924,20.924a5.151,5.151,0,0,1,2.587-4.457,5.174,5.174,0,1,0,0,8.913A5.151,5.151,0,0,1,11.924,20.924Z" transform="translate(-6.75 -15.75)" fill="#b21d13"/>
      </g>
      <g id="Group_53" data-name="Group 53" transform="translate(0 41.393)">
        <path id="Path_151" data-name="Path 151" d="M11.924,29.924a5.151,5.151,0,0,1,2.587-4.457,5.174,5.174,0,1,0,0,8.913A5.151,5.151,0,0,1,11.924,29.924Z" transform="translate(-6.75 -24.75)" fill="#b21d13"/>
      </g>
    </g>
    <g id="regular" transform="translate(13.623 11.315)">
      <g id="Group_54" data-name="Group 54">
        <path id="Path_152" data-name="Path 152" d="M57.166,19.8H10.024A4.029,4.029,0,0,1,6,15.773V10.024A4.029,4.029,0,0,1,10.024,6H57.166a4.029,4.029,0,0,1,4.024,4.024v5.749A4.029,4.029,0,0,1,57.166,19.8ZM10.024,9.449a.575.575,0,0,0-.575.575v5.749a.575.575,0,0,0,.575.575H57.166a.575.575,0,0,0,.575-.575V10.024a.575.575,0,0,0-.575-.575Z" transform="translate(-6 -6)"/>
      </g>
      <g id="Group_55" data-name="Group 55" transform="translate(18.397 20.696)">
        <path id="Path_153" data-name="Path 153" d="M46.769,28.8H18.024A4.029,4.029,0,0,1,14,24.773V19.024A4.029,4.029,0,0,1,18.024,15H46.769a4.029,4.029,0,0,1,4.024,4.024v5.749A4.029,4.029,0,0,1,46.769,28.8ZM18.024,18.449a.575.575,0,0,0-.575.575v5.749a.575.575,0,0,0,.575.575H46.769a.575.575,0,0,0,.575-.575V19.024a.575.575,0,0,0-.575-.575Z" transform="translate(-14 -15)"/>
      </g>
      <g id="Group_56" data-name="Group 56" transform="translate(18.397 41.393)">
        <path id="Path_154" data-name="Path 154" d="M46.769,37.8H18.024A4.029,4.029,0,0,1,14,33.773V28.024A4.029,4.029,0,0,1,18.024,24H46.769a4.029,4.029,0,0,1,4.024,4.024v5.749A4.029,4.029,0,0,1,46.769,37.8ZM18.024,27.449a.575.575,0,0,0-.575.575v5.749a.575.575,0,0,0,.575.575H46.769a.575.575,0,0,0,.575-.575V28.024a.575.575,0,0,0-.575-.575Z" transform="translate(-14 -24)"/>
      </g>
      <g id="Group_57" data-name="Group 57" transform="translate(0 20.696)">
        <path id="Path_155" data-name="Path 155" d="M12.9,28.8a6.9,6.9,0,1,1,6.9-6.9A6.907,6.907,0,0,1,12.9,28.8Zm0-10.348A3.449,3.449,0,1,0,16.348,21.9,3.454,3.454,0,0,0,12.9,18.449Z" transform="translate(-6 -15)"/>
      </g>
      <g id="Group_58" data-name="Group 58" transform="translate(0 41.393)">
        <path id="Path_156" data-name="Path 156" d="M12.9,37.8a6.9,6.9,0,1,1,6.9-6.9A6.907,6.907,0,0,1,12.9,37.8Zm0-10.348A3.449,3.449,0,1,0,16.348,30.9,3.454,3.454,0,0,0,12.9,27.449Z" transform="translate(-6 -24)"/>
      </g>
    </g>
  </g>
</svg>
