<svg xmlns="http://www.w3.org/2000/svg" width="113.798" height="37.225" viewBox="0 0 113.798 37.225">
  <g id="Layer_2" data-name="Layer 2" transform="translate(0.005 0.032)">
    <g id="Layer_1" data-name="Layer 1" transform="translate(-0.005 -0.032)">
      <path id="Path_88" data-name="Path 88" d="M478.134,27.078h-2.066a.521.521,0,0,1-.419-.186.491.491,0,0,1-.106-.445l.683-5.732a.843.843,0,0,1,.236-.445.608.608,0,0,1,.447-.186H479.8c.21,0,.324-.087.324-.262l.787-6.351a.744.744,0,0,1,.236-.447.609.609,0,0,1,.447-.186h6.876a.527.527,0,0,1,.421.186.5.5,0,0,1,.1.447l-.648,5.222h-.114a10.849,10.849,0,0,0-6.286,2.481c-.1.078-.2.156-.3.236l-.061.035-.123.13c-.218.186-.428.4-.648.631a11.881,11.881,0,0,0-2.676,4.872Z" transform="translate(-387.034 -10.443)" fill="#fff"/>
      <path id="Path_89" data-name="Path 89" d="M2.938,75.551A6.127,6.127,0,0,1,0,70.245a5.743,5.743,0,0,1,.052-.886L.1,68.781a.856.856,0,0,1,.236-.447.609.609,0,0,1,.447-.186H7.668q.577,0,.579.631a1.6,1.6,0,0,0,.839,1.654,4.718,4.718,0,0,0,2.633.653,4.553,4.553,0,0,0,2.419-.558,1.645,1.645,0,0,0,.893-1.444,1.186,1.186,0,0,0-.841-1.1,14.074,14.074,0,0,0-2.73-.735,25.137,25.137,0,0,1-4.952-1.517A10.544,10.544,0,0,1,2.99,63.286a5.464,5.464,0,0,1-1.319-3.807,7.849,7.849,0,0,1,.054-1.051,9.05,9.05,0,0,1,3.891-6.487,14.145,14.145,0,0,1,8.406-2.389,12.079,12.079,0,0,1,7.591,2.179,6.971,6.971,0,0,1,2.81,5.806,7.816,7.816,0,0,1-.048,1.05.782.782,0,0,1-.262.447.7.7,0,0,1-.473.186H16.962a.521.521,0,0,1-.419-.186.5.5,0,0,1-.106-.447,1.716,1.716,0,0,0-.709-1.628,3.885,3.885,0,0,0-2.389-.623,4.965,4.965,0,0,0-2.5.558,1.674,1.674,0,0,0-.971,1.489,1.306,1.306,0,0,0,.945,1.234,15.555,15.555,0,0,0,3.046.763,35.916,35.916,0,0,1,4,.992,10.84,10.84,0,0,1,4.256,2.5,5.524,5.524,0,0,1,1.513,4.07,7.91,7.91,0,0,1-.052,1.051,8.536,8.536,0,0,1-3.908,6.327,15.509,15.509,0,0,1-8.694,2.235A14.139,14.139,0,0,1,2.938,75.551Z" transform="translate(0.005 -40.323)" fill="#fff"/>
      <path id="Path_90" data-name="Path 90" d="M163.035,11.487a7.962,7.962,0,0,1,2.181,5.933q0,.422-.106,1.576l-2.1,17.281a.843.843,0,0,1-.236.447.6.6,0,0,1-.447.186h-7.243a.521.521,0,0,1-.421-.186.5.5,0,0,1-.1-.447l1.891-15.39.052-.631a3.658,3.658,0,0,0-.841-2.522,2.814,2.814,0,0,0-2.205-.945,3.638,3.638,0,0,0-2.652,1.133,4.849,4.849,0,0,0-1.338,2.977l-1.891,15.39a.869.869,0,0,1-.236.447.6.6,0,0,1-.447.186h-7.254a.521.521,0,0,1-.421-.186.5.5,0,0,1-.1-.447L143.469.771a.843.843,0,0,1,.236-.447.6.6,0,0,1,.447-.186h7.258a.527.527,0,0,1,.421.186.5.5,0,0,1,.1.447l-1.418,11.556c-.035.14-.017.22.054.236s.138-.026.208-.132a7.6,7.6,0,0,1,6.461-3.1A7.893,7.893,0,0,1,163.035,11.487Z" transform="translate(-113.212 -0.107)" fill="#fff"/>
      <path id="Path_91" data-name="Path 91" d="M290.209,36.614a.5.5,0,0,1-.106-.447l3.152-25.9a.845.845,0,0,1,.236-.445.6.6,0,0,1,.447-.186H301.2a.527.527,0,0,1,.421.186.5.5,0,0,1,.1.445l-3.16,25.9a.856.856,0,0,1-.236.447.6.6,0,0,1-.447.186H290.63A.515.515,0,0,1,290.209,36.614Zm3.5-29.339a.5.5,0,0,1-.1-.447l.769-6.2a.575.575,0,0,1,.21-.443A.705.705,0,0,1,295.055,0h7.194c.385,0,.577.208.577.629l-.769,6.2a.856.856,0,0,1-.236.447.609.609,0,0,1-.447.186h-7.246a.525.525,0,0,1-.421-.186Z" transform="translate(-236.104 0.006)" fill="#fff"/>
      <path id="Path_92" data-name="Path 92" d="M385.759,10.192l-.735,5.884a.856.856,0,0,1-.236.447.607.607,0,0,1-.447.186H379.5a.244.244,0,0,0-.186.08.247.247,0,0,0-.08.186l-2.363,19.168a.843.843,0,0,1-.236.447.6.6,0,0,1-.447.186h-7.239a.517.517,0,0,1-.421-.186.5.5,0,0,1-.106-.447l2.365-19.168c0-.175-.071-.264-.21-.264h-2.89a.527.527,0,0,1-.421-.186.5.5,0,0,1-.1-.447l.735-5.884a.856.856,0,0,1,.236-.447.614.614,0,0,1,.447-.186h2.836c.21,0,.316-.087.316-.262l.158-1.42a10.263,10.263,0,0,1,1.654-4.859A6.749,6.749,0,0,1,377.269.553,20.919,20.919,0,0,1,383.7-.006h2.1a.521.521,0,0,1,.419.186.5.5,0,0,1,.106.447l-.579,4.781a.856.856,0,0,1-.236.447.607.607,0,0,1-.447.186h-1.987a3.287,3.287,0,0,0-2,.683,3.248,3.248,0,0,0-.839,1.945l-.054.631c0,.175.071.262.21.262h4.781C385.567,9.563,385.759,9.772,385.759,10.192Z" transform="translate(-298.825 0.032)" fill="#fff"/>
      <path id="Path_93" data-name="Path 93" d="M509.313,45.6l-6.24-6.21a.422.422,0,0,0-.765.186l-.052.467v.022l-.171,1.472h0l-4.569.1H497.2c-.1,0-.186.009-.281.009a9.369,9.369,0,0,0-5.52,2.1c-.114.078-.22.175-.324.262a.11.11,0,0,0-.045.043,7.279,7.279,0,0,0-.586.558,10.459,10.459,0,0,0-1.416,1.978c-1.208,1.976-1.706,5.955-1.759,6.439a.236.236,0,0,0,0,.052l-.026.2-.167,1.4-.558,4.6c0,.045-.009.08-.009.106a1.045,1.045,0,0,1-.017.123l-.29,2.419q-.1,1.05-.1,1.47,0,3.149,1.969,4.3a12.246,12.246,0,0,0,6.015,1.161q1.1,0,3.623-.106a.778.778,0,0,0,.681-.683l.735-6.089a.5.5,0,0,0-.1-.445.527.527,0,0,0-.421-.186H496.7a1.776,1.776,0,0,1-1.9-1.208,3.458,3.458,0,0,1-.147-1.05,4.146,4.146,0,0,1,.017-.482,1.706,1.706,0,0,1,.035-.244l.655-5.093.028-.2s.052-.305.069-.447c.019-.06.026-.114.045-.175a4.814,4.814,0,0,1,4.69-3.664h1.01v.013l-.1.826-.147,1.176a.422.422,0,0,0,.7.372l7.55-4.686A.674.674,0,0,0,509.313,45.6Z" transform="translate(-395.639 -31.908)" fill="#fff"/>
      <path id="Path_94" data-name="Path 94" d="M488.269,146.677l.026-.1a1.29,1.29,0,0,0-.035.2C488.26,146.755,488.269,146.72,488.269,146.677Z" transform="translate(-397.397 -119.297)" fill="#aaa"/>
      <path id="Path_95" data-name="Path 95" d="M503.1,90.45h-1a4.838,4.838,0,0,0-4.693,3.642c-.019.061-.026.115-.045.186-7.163,1.4-8.609,5.179-8.932,6.413C489.839,88.932,503.1,90.45,503.1,90.45Z" transform="translate(-397.536 -73.56)" fill="#e0e0e0"/>
    </g>
    <path id="Path_96" data-name="Path 96" d="M328.486,797.61l-6.243-6.213a.422.422,0,0,0-.765.191l-.053.466,0,.024-.176,1.468v.005h-4.564c-.105,0-.21,0-.315.009s-.193.009-.281.009a9.5,9.5,0,0,0-5.524,2.189c-.114.079-.219.175-.324.262a.107.107,0,0,0-.044.044,7.229,7.229,0,0,0-.586.561,10.448,10.448,0,0,0-1.418,1.978c-1.209,1.979-1.708,5.954-1.76,6.444a.246.246,0,0,0-.009.053l-.026.2-.647,5.362c.659-5.758,6.2-9.854,13.614-9.854h1.012l0,.015-.1.825-.148,1.177a.423.423,0,0,0,.7.368l7.556-4.689A.675.675,0,0,0,328.486,797.61Z" transform="translate(-214.816 -783.949)"/>
  </g>
</svg>
