<svg xmlns="http://www.w3.org/2000/svg" width="66.33" height="72.872" viewBox="0 0 66.33 72.872">
  <g id="loud-speaker" transform="translate(-2.477 -0.946)">
    <g id="BG" transform="translate(2.477 0.946)">
      <g id="Group_90" data-name="Group 90">
        <path id="Path_207" data-name="Path 207" d="M21.824,73.28c14.2-4.1,26.072.44,32.913-1.536S74.811,61.685,65.723,30.21,35.974-.3,28.447,1.874C-6.791,12.05-3.321,80.542,21.824,73.28Z" transform="translate(-2.477 -0.946)" fill="#fff"/>
      </g>
    </g>
    <g id="effect" transform="translate(3.39 12.744)">
      <g id="Group_94" data-name="Group 94" transform="translate(0 8.759)">
        <g id="Group_91" data-name="Group 91" transform="translate(8.689 0.379)">
          <path id="Path_208" data-name="Path 208" d="M0,0H4.273V2.137H0Z" transform="translate(0 3.021) rotate(-45)" fill="#a4afc1"/>
        </g>
        <g id="Group_92" data-name="Group 92" transform="translate(0 9.063)">
          <path id="Path_209" data-name="Path 209" d="M0,0H4.273V2.137H0Z" transform="translate(0 3.021) rotate(-45)" fill="#a4afc1"/>
        </g>
        <g id="Group_93" data-name="Group 93" transform="translate(0.002 0)">
          <path id="Path_210" data-name="Path 210" d="M0,0H2.137V4.273H0Z" transform="translate(0 1.511) rotate(-45)" fill="#a4afc1"/>
        </g>
      </g>
      <g id="Group_95" data-name="Group 95" transform="translate(49.554 0)">
        <path id="Path_211" data-name="Path 211" d="M29.3,12.878a3.2,3.2,0,1,1,3.2-3.2A3.209,3.209,0,0,1,29.3,12.878Zm0-4.273a1.068,1.068,0,1,0,1.068,1.068A1.071,1.071,0,0,0,29.3,8.6Z" transform="translate(-26.098 -6.468)" fill="#a4afc1"/>
      </g>
    </g>
    <g id="color" transform="translate(11.607 19.756)">
      <g id="Group_96" data-name="Group 96" transform="translate(10.683)">
        <path id="Path_212" data-name="Path 212" d="M11.75,20.433V32.183L38.456,42.866V9.75Z" transform="translate(-11.75 -9.75)" fill="#f3f3f1"/>
      </g>
      <g id="Group_97" data-name="Group 97" transform="translate(0 10.683)">
        <path id="Path_213" data-name="Path 213" d="M9.955,26.5h7.478V14.75H9.955a3.206,3.206,0,0,0-3.2,3.2V23.83C6.75,25.6,8.186,26.5,9.955,26.5Z" transform="translate(-6.75 -14.75)" fill="#de291d"/>
      </g>
      <g id="Group_98" data-name="Group 98" transform="translate(6.41 22.433)">
        <path id="Path_214" data-name="Path 214" d="M16.736,21.3,9.75,20.25l2.137,14.956H18.3Z" transform="translate(-9.75 -20.25)" fill="#de291d"/>
      </g>
    </g>
    <g id="shadow" transform="translate(11.607 19.756)">
      <g id="Group_99" data-name="Group 99" transform="translate(10.683)">
        <path id="Path_215" data-name="Path 215" d="M16.557,32.183V20.433l21.9-8.76V9.75L11.75,20.433V32.183L38.456,42.866V40.943Z" transform="translate(-11.75 -9.75)" fill="#d5dbe1"/>
      </g>
      <g id="Group_100" data-name="Group 100" transform="translate(0 10.683)">
        <path id="Path_216" data-name="Path 216" d="M11.557,23.83V17.955a3.206,3.206,0,0,1,3.2-3.2H9.955a3.206,3.206,0,0,0-3.2,3.2V23.83c0,1.769,1.436,2.671,3.2,2.671h4.807C12.993,26.5,11.557,25.6,11.557,23.83Z" transform="translate(-6.75 -14.75)" fill="#b21d13"/>
      </g>
      <g id="Group_101" data-name="Group 101" transform="translate(6.41 22.433)">
        <path id="Path_217" data-name="Path 217" d="M9.75,20.25l2.137,14.956h4.807L14.662,20.987Z" transform="translate(-9.75 -20.25)" fill="#b21d13"/>
      </g>
    </g>
    <g id="_x31_.5" transform="translate(10.004 18.153)">
      <g id="Group_103" data-name="Group 103" transform="translate(10.683)">
        <g id="Group_102" data-name="Group 102">
          <path id="Path_218" data-name="Path 218" d="M39.309,45.321a1.6,1.6,0,0,1-.594-.115L12.008,34.523A1.6,1.6,0,0,1,11,33.036V21.285A1.6,1.6,0,0,1,12.008,19.8L38.715,9.116a1.6,1.6,0,0,1,2.2,1.487V43.719a1.6,1.6,0,0,1-1.6,1.6ZM14.2,31.951l23.5,9.4V12.968l-23.5,9.4Z" transform="translate(-11 -9)"/>
        </g>
      </g>
      <g id="Group_105" data-name="Group 105" transform="translate(0 10.683)">
        <g id="Group_104" data-name="Group 104">
          <path id="Path_219" data-name="Path 219" d="M18.285,28.956H10.807C7.976,28.956,6,27.2,6,24.683V18.807A4.814,4.814,0,0,1,10.807,14h7.478a1.6,1.6,0,0,1,1.6,1.6V27.353A1.6,1.6,0,0,1,18.285,28.956ZM10.807,17.2a1.606,1.606,0,0,0-1.6,1.6v5.875c0,.882.872,1.068,1.6,1.068h5.875V17.2Z" transform="translate(-6 -14)"/>
        </g>
      </g>
      <g id="Group_107" data-name="Group 107" transform="translate(6.427 23.808)">
        <g id="Group_106" data-name="Group 106">
          <path id="Path_220" data-name="Path 220" d="M19.139,36.93H12.73a1.6,1.6,0,0,1-1.585-1.376L9.008,20.6l3.171-.455,1.94,13.582h3.228L15.986,21.6l3.183-.359,1.56,13.909a1.6,1.6,0,0,1-1.59,1.782Z" transform="translate(-9.008 -20.143)"/>
        </g>
      </g>
      <g id="Group_109" data-name="Group 109" transform="translate(43.347 6.746)">
        <g id="Group_108" data-name="Group 108" transform="translate(0 0)">
          <path id="Path_221" data-name="Path 221" d="M0,0H6.841V3.207H0Z" transform="matrix(0.781, -0.625, 0.625, 0.781, 0, 4.276)"/>
        </g>
      </g>
      <g id="Group_111" data-name="Group 111" transform="translate(43.354 24.925)">
        <g id="Group_110" data-name="Group 110" transform="translate(0 0)">
          <path id="Path_222" data-name="Path 222" d="M0,0H3.207V6.841H0Z" transform="matrix(0.625, -0.781, 0.781, 0.625, 0, 2.505)"/>
        </g>
      </g>
      <g id="Group_113" data-name="Group 113" transform="translate(44.333 17.627)">
        <g id="Group_112" data-name="Group 112">
          <path id="Path_223" data-name="Path 223" d="M26.75,17.25h5.341v3.2H26.75Z" transform="translate(-26.75 -17.25)"/>
        </g>
      </g>
    </g>
  </g>
</svg>
