<svg xmlns="http://www.w3.org/2000/svg" width="95.061" height="104.128" viewBox="0 0 95.061 104.128">
  <g id="sale" transform="translate(-2.29 -0.584)">
    <path id="Path_224" data-name="Path 224" d="M78.021,11.3C57.343,11.3,43.144.584,33.18.584S2.29,6.312,2.29,52.149,30.441,104.712,41.4,104.712C92.72,104.715,114.642,11.3,78.021,11.3Z" transform="translate(0 0)" fill="#fff"/>
    <g id="Group_116" data-name="Group 116" transform="translate(78.858 4.546)">
      <path id="Path_225" data-name="Path 225" d="M0,0H2.989V5.979H0Z" transform="translate(0 2.114) rotate(-45)" fill="#a4afc1"/>
      <path id="Path_226" data-name="Path 226" d="M0,0H2.989V5.979H0Z" transform="translate(12.153 14.269) rotate(-45)" fill="#a4afc1"/>
      <path id="Path_227" data-name="Path 227" d="M0,0H5.979V2.989H0Z" transform="translate(11.63 4.227) rotate(-45)" fill="#a4afc1"/>
    </g>
    <path id="Path_228" data-name="Path 228" d="M37.75,72.368a5.921,5.921,0,0,1-8.311-.12L8.514,51.322a5.921,5.921,0,0,1-.12-8.311L40.59,9.56a8.935,8.935,0,0,1,6.517-2.81H68.033a6,6,0,0,1,5.979,5.979V33.655a8.883,8.883,0,0,1-1.764,5.321Z" transform="translate(8.873 12.267)" fill="#f3f3f1"/>
    <circle id="Ellipse_18" data-name="Ellipse 18" cx="3.737" cy="3.737" r="3.737" transform="translate(66.443 27.985)" fill="#2fdf84"/>
    <path id="Path_229" data-name="Path 229" d="M36.166,72.248,15.24,51.322a5.921,5.921,0,0,1-.12-8.311L47.317,9.56a8.935,8.935,0,0,1,6.517-2.81H47.107A8.935,8.935,0,0,0,40.59,9.56L8.394,43.012a5.921,5.921,0,0,0,.12,8.311L29.44,72.248a5.9,5.9,0,0,0,7.569.711A5.8,5.8,0,0,1,36.166,72.248Z" transform="translate(8.873 12.267)" fill="#d5dbe1"/>
    <path id="Path_230" data-name="Path 230" d="M30.476,13.487a3.656,3.656,0,0,1,.374-1.572,3.737,3.737,0,1,0,0,3.145A3.656,3.656,0,0,1,30.476,13.487Z" transform="translate(42.693 18.235)" fill="#de291d"/>
    <path id="Path_237" data-name="Path 237" d="M13.952,59.929,8.421,54.4A8.026,8.026,0,0,1,6,48.6,8.187,8.187,0,0,1,8.278,42.94L40.468,9.5A11.112,11.112,0,0,1,48.6,6H69.525a8.228,8.228,0,0,1,8.221,8.221V35.147a11.115,11.115,0,0,1-3.513,8.143L60.8,56.222l-3.112-3.229L71.137,40.05a6.7,6.7,0,0,0,2.125-4.9V14.221a3.742,3.742,0,0,0-3.737-3.737H48.6a6.693,6.693,0,0,0-4.891,2.111L11.5,46.058A3.665,3.665,0,0,0,10.484,48.6a3.608,3.608,0,0,0,1.085,2.61l5.551,5.548Z" transform="translate(7.381 10.775)"/>
    <path id="Path_238" data-name="Path 238" d="M28.979,20.958a5.979,5.979,0,1,1,5.979-5.979A5.985,5.985,0,0,1,28.979,20.958Zm0-7.474a1.495,1.495,0,1,0,1.495,1.495A1.5,1.5,0,0,0,28.979,13.484Z" transform="translate(41.201 16.743)"/>
    <text id="Offer" transform="translate(21.12 60.898)" font-size="25" font-family="SegoeUI, Segoe UI"><tspan x="4.031" y="27">Offer</tspan></text>
  </g>
</svg>
