<svg xmlns="http://www.w3.org/2000/svg" width="81.482" height="73.5" viewBox="0 0 81.482 73.5">
  <g id="credit-card" transform="translate(-0.584 -2.29)">
    <path id="Path_157" data-name="Path 157" d="M8.966,16.529C8.966,32.71.584,43.821.584,51.618S5.066,75.79,40.934,75.79s41.132-22.029,41.132-30.6c0-40.158-73.1-57.312-73.1-28.656Z" transform="translate(0 0)" fill="#fff"/>
    <path id="Path_159" data-name="Path 159" d="M10.75,17.107V12.429A4.692,4.692,0,0,1,15.429,7.75h33.92a4.692,4.692,0,0,1,4.679,4.679v4.679Z" transform="translate(13.615 7.312)" fill="#f3f3f1"/>
    <path id="Path_160" data-name="Path 160" d="M54.027,11.75V26.955a4.692,4.692,0,0,1-4.679,4.679H15.429a4.692,4.692,0,0,1-4.679-4.679V11.75Z" transform="translate(13.615 12.67)" fill="#de291d"/>
    <path id="Path_161" data-name="Path 161" d="M45.348,44.991H11.429A4.677,4.677,0,0,1,6.75,40.312V20.429a4.677,4.677,0,0,1,4.679-4.679h33.92a4.677,4.677,0,0,1,4.679,4.679V40.312A4.677,4.677,0,0,1,45.348,44.991Z" transform="translate(8.258 18.027)" fill="#f3f3f1"/>
    <path id="Path_162" data-name="Path 162" d="M15.6,26.937H12.089A2.34,2.34,0,0,1,9.75,24.6V21.089a2.34,2.34,0,0,1,2.339-2.339H15.6a2.34,2.34,0,0,1,2.339,2.339V24.6A2.34,2.34,0,0,1,15.6,26.937Z" transform="translate(12.276 22.044)" fill="#de291d"/>
    <path id="Path_163" data-name="Path 163" d="M10.75,11.75h5.263v9.357H10.75Z" transform="translate(13.615 12.67)" fill="#b21d13"/>
    <path id="Path_164" data-name="Path 164" d="M15.013,24.6V21.089a2.332,2.332,0,0,1,1.462-2.161,2.33,2.33,0,0,0-.877-.178H12.089A2.34,2.34,0,0,0,9.75,21.089V24.6a2.34,2.34,0,0,0,2.339,2.339H15.6a2.33,2.33,0,0,0,.877-.178A2.332,2.332,0,0,1,15.013,24.6Z" transform="translate(12.276 22.044)" fill="#b21d13"/>
    <path id="Path_165" data-name="Path 165" d="M20.692,7.75H15.429a4.692,4.692,0,0,0-4.679,4.679v4.679h5.263V12.429A4.692,4.692,0,0,1,20.692,7.75Z" transform="translate(13.615 7.312)" fill="#d5dbe1"/>
    <path id="Path_166" data-name="Path 166" d="M12.013,40.312V20.429a4.677,4.677,0,0,1,4.679-4.679H11.429A4.677,4.677,0,0,0,6.75,20.429V40.312a4.677,4.677,0,0,0,4.679,4.679h5.263A4.677,4.677,0,0,1,12.013,40.312Z" transform="translate(8.258 18.027)" fill="#d5dbe1"/>
    <path id="Path_167" data-name="Path 167" d="M46.353,47.75H12.433A6.438,6.438,0,0,1,6,41.317V21.433A6.438,6.438,0,0,1,12.433,15h33.92a6.438,6.438,0,0,1,6.433,6.433V41.317A6.438,6.438,0,0,1,46.353,47.75ZM12.433,18.509a2.928,2.928,0,0,0-2.924,2.924V41.317a2.928,2.928,0,0,0,2.924,2.924h33.92a2.928,2.928,0,0,0,2.924-2.924V21.433a2.928,2.928,0,0,0-2.924-2.924Z" transform="translate(7.254 17.022)"/>
    <path id="Path_168" data-name="Path 168" d="M16.6,29.7H13.094A4.1,4.1,0,0,1,9,25.6V22.094A4.1,4.1,0,0,1,13.094,18H16.6A4.1,4.1,0,0,1,20.7,22.094V25.6A4.1,4.1,0,0,1,16.6,29.7Zm-3.509-8.187a.585.585,0,0,0-.585.585V25.6a.585.585,0,0,0,.585.585H16.6a.585.585,0,0,0,.585-.585V22.094a.585.585,0,0,0-.585-.585Z" transform="translate(11.271 21.04)"/>
    <path id="Path_169" data-name="Path 169" d="M9,24.5H41.75v3.509H9Z" transform="translate(11.271 29.745)"/>
    <path id="Path_170" data-name="Path 170" d="M11.25,11H52.187v3.509H11.25Z" transform="translate(14.285 11.665)"/>
    <path id="Path_171" data-name="Path 171" d="M53.557,38.868l-1.731-3.053a2.84,2.84,0,0,0,1.45-2.5V13.433a2.928,2.928,0,0,0-2.924-2.924H16.433a2.928,2.928,0,0,0-2.924,2.924v7.018H10V13.433A6.438,6.438,0,0,1,16.433,7h33.92a6.438,6.438,0,0,1,6.433,6.433V33.317a6.392,6.392,0,0,1-3.228,5.551Z" transform="translate(12.611 6.308)"/>
  </g>
</svg>
