<svg xmlns="http://www.w3.org/2000/svg" width="82.167" height="74" viewBox="0 0 82.167 74">
  <g id="image" transform="translate(-0.134 -1.91)">
    <path id="Path_117" data-name="Path 117" d="M80.091,44.326c-8.7-13.317-7.773-26.967-11.965-33.386S51.44-6.544,21.92,12.738s-22.012,40.243-17.4,47.3C26.11,93.089,95.5,67.911,80.091,44.326Z" transform="translate(0 0)" fill="#fff"/>
    <path id="Path_118" data-name="Path 118" d="M34.7,7.75H15.156a2.306,2.306,0,0,0-2.3,2.3V22.7a2.075,2.075,0,0,0,.207.92c0,.023,0,.023.023.046A2.267,2.267,0,0,0,15.156,25H34.7A2.306,2.306,0,0,0,37,22.7V10.05A2.306,2.306,0,0,0,34.7,7.75Z" transform="translate(16.533 7.589)" fill="#f3f3f1"/>
    <path id="Path_119" data-name="Path 119" d="M18.26,23.663c-.023-.023-.023-.023-.023-.046a2.074,2.074,0,0,1-.207-.92V10.05a2.306,2.306,0,0,1,2.3-2.3H15.156a2.306,2.306,0,0,0-2.3,2.3V22.7a2.075,2.075,0,0,0,.207.92c0,.023,0,.023.023.046A2.267,2.267,0,0,0,15.156,25H20.33a2.267,2.267,0,0,1-2.07-1.334Z" transform="translate(16.533 7.589)" fill="#d5dbe1"/>
    <path id="Path_120" data-name="Path 120" d="M36.868,17.04l.025,2.3a2.307,2.307,0,0,1-2.274,2.325l-19.544.221a2.263,2.263,0,0,1-2.083-1.311c-.023-.023-.023-.023-.023-.046l7.384-7.9,3.509,3.226,5.25-5.625Z" transform="translate(16.679 10.811)" fill="#de291d"/>
    <path id="Path_121" data-name="Path 121" d="M18.74,19.219c-.023-.023-.023-.023-.023-.046l4.728-5.059-3.093-2.842-7.384,7.9c0,.023,0,.023.023.046a2.272,2.272,0,0,0,2.083,1.311l5.312-.06A2.239,2.239,0,0,1,18.74,19.219Z" transform="translate(16.679 12.167)" fill="#b21d13"/>
    <path id="Path_126" data-name="Path 126" d="M26.75,11H30.2v3.449H26.75Z" transform="translate(34.59 11.813)"/>
    <path id="Path_127" data-name="Path 127" d="M26.75,7H30.2v3.449H26.75Z" transform="translate(34.59 6.615)"/>
    <path id="Path_128" data-name="Path 128" d="M26.75,15H30.2v3.449H26.75Z" transform="translate(34.59 17.011)"/>
    <path id="Path_129" data-name="Path 129" d="M7.75,11H11.2v3.449H7.75Z" transform="translate(9.897 11.813)"/>
    <path id="Path_130" data-name="Path 130" d="M7.75,7H11.2v3.449H7.75Z" transform="translate(9.897 6.615)"/>
    <path id="Path_131" data-name="Path 131" d="M7.75,15H11.2v3.449H7.75Z" transform="translate(9.897 17.011)"/>
    <path id="Path_132" data-name="Path 132" d="M7.75,19H54.892v3.449H7.75Z" transform="translate(9.897 22.21)"/>
    <path id="Path_133" data-name="Path 133" d="M7.75,23H54.892v3.449H7.75Z" transform="translate(9.897 27.408)"/>
    <path id="Path_134" data-name="Path 134" d="M7.75,27H54.892v3.449H7.75Z" transform="translate(9.897 32.607)"/>
    <path id="Path_135" data-name="Path 135" d="M35.571,27.7H16.024A4.079,4.079,0,0,1,12,23.672V11.024A4.029,4.029,0,0,1,16.024,7H35.571A4.029,4.029,0,0,1,39.6,11.024V23.672A4.029,4.029,0,0,1,35.571,27.7ZM16.024,10.449a.575.575,0,0,0-.575.575V23.672a.674.674,0,0,0,.575.575H35.571a.575.575,0,0,0,.575-.575V11.024a.575.575,0,0,0-.575-.575Z" transform="translate(15.421 6.615)"/>
    <path id="Path_136" data-name="Path 136" d="M14.93,22.216l-2.5-2.38,7.159-7.5a1.723,1.723,0,0,1,2.431-.064l2.221,2.09,4.13-4.326a1.719,1.719,0,0,1,2.4-.092l7.683,6.9-2.3,2.564-6.439-5.781L25.557,17.98a1.723,1.723,0,0,1-2.431.064L20.9,15.954Z" transform="translate(15.986 9.863)"/>
  </g>
</svg>
