<svg xmlns="http://www.w3.org/2000/svg" width="66.749" height="74" viewBox="0 0 66.749 74">
  <g id="graph" transform="translate(0)">
    <g id="Group_72" data-name="Group 72" transform="translate(0 0)">
      <path id="Path_184" data-name="Path 184" d="M56.108,66.971c-14.695,0-24.786,7.612-31.866,7.612S2.29,70.513,2.29,37.939,22.3.583,30.084.583C66.554.583,82.132,66.971,56.108,66.971Z" transform="translate(-2.29 -0.583)" fill="#fff"/>
    </g>
    <g id="Group_75" data-name="Group 75" transform="translate(47.056 40.439)">
      <g id="Group_73" data-name="Group 73" transform="translate(0 4.474)">
        <path id="Path_185" data-name="Path 185" d="M24.625,21.75h2.237v4.474H24.625Z" transform="translate(-24.625 -21.75)" fill="#a4afc1"/>
      </g>
      <g id="Group_74" data-name="Group 74" transform="translate(5.033)">
        <path id="Path_186" data-name="Path 186" d="M26.875,19.75h4.474v2.237H26.875Z" transform="translate(-26.875 -19.75)" fill="#a4afc1"/>
      </g>
    </g>
    <g id="Group_76" data-name="Group 76" transform="translate(17.814 38.291)">
      <ellipse id="Ellipse_4" data-name="Ellipse 4" cx="5.033" cy="5.033" rx="5.033" ry="5.033" fill="#f3f3f1"/>
    </g>
    <g id="Group_77" data-name="Group 77" transform="translate(28.342 21.429)">
      <ellipse id="Ellipse_5" data-name="Ellipse 5" cx="5.033" cy="5.033" rx="5.033" ry="5.033" fill="#de291d"/>
    </g>
    <g id="Group_78" data-name="Group 78" transform="translate(46.707 17.214)">
      <ellipse id="Ellipse_6" data-name="Ellipse 6" cx="5.033" cy="5.033" rx="5.033" ry="5.033" fill="#f3f3f1"/>
    </g>
    <g id="Group_79" data-name="Group 79" transform="translate(17.858 38.291)">
      <path id="Path_187" data-name="Path 187" d="M15.783,23.783A5.01,5.01,0,0,1,18.3,19.448a5.033,5.033,0,1,0,0,8.67A5.01,5.01,0,0,1,15.783,23.783Z" transform="translate(-10.75 -18.75)" fill="#d5dbe1"/>
    </g>
    <g id="Group_80" data-name="Group 80" transform="translate(47.411 17.214)">
      <path id="Path_188" data-name="Path 188" d="M29.783,13.783A5.01,5.01,0,0,1,32.3,9.448a5.033,5.033,0,1,0,0,8.67A5.01,5.01,0,0,1,29.783,13.783Z" transform="translate(-24.75 -8.75)" fill="#d5dbe1"/>
    </g>
    <g id="Group_81" data-name="Group 81" transform="translate(28.413 21.429)">
      <path id="Path_189" data-name="Path 189" d="M20.783,15.783A5.01,5.01,0,0,1,23.3,11.448a5.033,5.033,0,1,0,0,8.67A5.01,5.01,0,0,1,20.783,15.783Z" transform="translate(-15.75 -10.75)" fill="#b21d13"/>
    </g>
    <g id="Group_82" data-name="Group 82" transform="translate(8.299 57.047)">
      <path id="Path_190" data-name="Path 190" d="M6,27.5H56.152v3.355H6Z" transform="translate(-6 -27.5)"/>
    </g>
    <g id="Group_83" data-name="Group 83" transform="translate(10.535 10.159)">
      <path id="Path_191" data-name="Path 191" d="M7,6h3.355V59.684H7Z" transform="translate(-7 -6)"/>
    </g>
    <g id="Group_84" data-name="Group 84" transform="translate(16.175 36.594)">
      <path id="Path_192" data-name="Path 192" d="M16.71,31.421a6.71,6.71,0,1,1,6.71-6.71A6.719,6.719,0,0,1,16.71,31.421Zm0-10.066a3.355,3.355,0,1,0,3.355,3.355A3.359,3.359,0,0,0,16.71,21.355Z" transform="translate(-10 -18)"/>
    </g>
    <g id="Group_85" data-name="Group 85" transform="translate(26.664 19.785)">
      <path id="Path_193" data-name="Path 193" d="M21.71,23.421a6.71,6.71,0,1,1,6.71-6.71A6.719,6.719,0,0,1,21.71,23.421Zm0-10.066a3.355,3.355,0,1,0,3.355,3.355A3.359,3.359,0,0,0,21.71,13.355Z" transform="translate(-15 -10)"/>
    </g>
    <g id="Group_86" data-name="Group 86" transform="translate(45.03 15.583)">
      <path id="Path_194" data-name="Path 194" d="M30.71,21.421a6.71,6.71,0,1,1,6.71-6.71A6.719,6.719,0,0,1,30.71,21.421Zm0-10.066a3.355,3.355,0,1,0,3.355,3.355A3.359,3.359,0,0,0,30.71,11.355Z" transform="translate(-24 -8)"/>
    </g>
    <g id="Group_87" data-name="Group 87" transform="translate(24.025 29.791)">
      <path id="Path_195" data-name="Path 195" d="M0,0H9.929V3.355H0Z" transform="matrix(0.531, -0.847, 0.847, 0.531, 0, 8.41)"/>
    </g>
    <g id="Group_88" data-name="Group 88" transform="translate(37.879 21.637)">
      <path id="Path_196" data-name="Path 196" d="M0,0H9.444V3.357H0Z" transform="translate(0 2.059) rotate(-12.591)"/>
    </g>
  </g>
</svg>
